<svg width="512" height="512" viewBox="0 0 512 512" xmlns="http://www.w3.org/2000/svg">
  <rect width="512" height="512" rx="100" fill="#0f1117"/>
  <rect width="512" height="512" rx="100" fill="none" stroke="#4ade80" stroke-width="3" opacity="0.3"/>
  <!-- Grid sutil -->
  <line x1="40" y1="256" x2="472" y2="256" stroke="#4ade80" stroke-width="1" opacity="0.12"/>
  <line x1="256" y1="40" x2="256" y2="472" stroke="#4ade80" stroke-width="1" opacity="0.12"/>
  <line x1="40" y1="160" x2="472" y2="160" stroke="#4ade80" stroke-width="1" opacity="0.08"/>
  <line x1="40" y1="352" x2="472" y2="352" stroke="#4ade80" stroke-width="1" opacity="0.08"/>
  <!-- Letra A -->
  <path d="M60 420 L188 100 L316 420" fill="none" stroke="#f0f2f8" stroke-width="34" stroke-linecap="round" stroke-linejoin="round"/>
  <line x1="106" y1="320" x2="270" y2="320" stroke="#f0f2f8" stroke-width="28" stroke-linecap="round"/>
  <!-- Letra T -->
  <line x1="300" y1="175" x2="472" y2="175" stroke="#4ade80" stroke-width="34" stroke-linecap="round"/>
  <line x1="386" y1="175" x2="386" y2="422" stroke="#4ade80" stroke-width="34" stroke-linecap="round"/>
  <!-- Folha -->
  <path d="M386 272 Q444 240 452 175 Q400 173 386 272Z" fill="#22c55e" opacity="0.95"/>
  <path d="M386 272 Q388 222 434 192" fill="none" stroke="#0f1117" stroke-width="2.5" opacity="0.6"/>
  <!-- Ponto tech -->
  <circle cx="472" cy="152" r="11" fill="#4ade80"/>
</svg>
